<?xml version="1.0" standalone="no"?>
<!DOCTYPE svg PUBLIC "-//W3C//DTD SVG 1.1//EN" "http://www.w3.org/Graphics/SVG/1.1/DTD/svg11.dtd" >
<!--
2013-9-30: Created.
-->
<svg>
    <metadata>
        Created by iconfont
    </metadata>
    <defs>

        <font id="iconfont" horiz-adv-x="1024">
            <font-face
                    font-family="iconfont"
                    font-weight="500"
                    font-stretch="normal"
                    units-per-em="1024"
                    ascent="896"
                    descent="-128"
            />
            <missing-glyph/>

            <glyph glyph-name="zhengpinbaozheng1" unicode="&#58937;"
                   d="M512 860.2624A476.2624 476.2624 0 1 1 988.2624 384 476.8768 476.8768 0 0 1 512 860.2624z m0-901.12A424.8576 424.8576 0 1 0 936.8576 384 425.2672 425.2672 0 0 0 512-40.8576zM715.1616 252.7232H562.2784V383.488h138.752q26.112 0 30.208 30.208-4.1984 30.1056-30.208 31.744H562.2784V552.448h142.848q26.112 0 30.208 30.208a30.72 30.72 0 0 1-30.208 30.208H318.8736a29.184 29.184 0 0 1-30.208-30.208q1.9456-30.208 30.208-30.208h178.9952v-299.7248h-86.4256v215.04A33.4848 33.4848 0 0 1 378.88 502.1696a30.72 30.72 0 0 1-30.208-34.2016v-215.04h-39.8336a27.5456 27.5456 0 0 1-28.16-28.16q1.9456-30.208 28.16-32.1536h410.3168Q747.52 194.4576 747.52 224.5632a30.72 30.72 0 0 1-32.3584 28.16z"
                   horiz-adv-x="1024"/>


            <glyph glyph-name="extraction" unicode="&#58880;"
                   d="M525.258467 844.656635c-244.178255 0-442.140932-197.929932-442.140932-442.141956 0-244.176209 197.962677-442.105117 442.140932-442.105117 244.194628 0 442.12456 197.928908 442.12456 442.105117C967.382003 646.726703 769.452071 844.656635 525.258467 844.656635zM524.839935 4.918265000000019c-219.593324 0-397.614833 178.00309-397.614833 397.596414 0 219.628116 178.021509 397.632229 397.614833 397.632229s397.615856-178.004113 397.615856-397.632229C922.454768 182.92135499999995 744.433258 4.918265000000019 524.839935 4.918265000000019zM757.56023 483.084693l-97.156784 97.29493L383.503952 580.379623l-95.018074-97.29493 24.602328 0 0-0.001023-24.602328 0c0-17.830087 9.951653-33.337269 24.602328-41.273009l0-254.298753 256.834506 0 0 35.606962L348.697215 223.11886900000002 348.697215 438.100152c13.673417 4.036943 24.742521 14.130835 30.101575 27.181059l7.013741 0c7.013741-17.075911 23.800056-29.104875 43.401486-29.104875 19.602454 0 36.389792 12.028964 43.402509 29.104875l6.999414 0c7.017834-17.075911 23.814382-29.104875 43.416835-29.104875 19.590174 0 36.383652 12.028964 43.399439 29.104875l6.999414 0c7.013741-17.075911 23.800056-29.104875 43.402509-29.104875s36.389792 12.028964 43.402509 29.104875l7.013741 0c5.164626-12.57541 15.632025-22.405289 28.623921-26.715455l0-150.906965L731.480248 287.65879099999995 731.480248 441.053414C746.934219 448.726164 757.56023 464.660064 757.56023 483.084693l-26.079982-0.001023 0 0.001023L757.56023 483.084693zM599.845209 254.206912l0-86.48063c0-5.669116 4.468778-10.6782 9.94756-10.6782l19.959587 0L629.752356 264.42974100000004l-19.959587 0C604.31501 264.42974100000004 599.845209 259.875005 599.845209 254.206912zM724.49209 264.42974100000004l-19.960611 0 0-107.379613 19.960611 0c5.494131 0 9.961886 5.008061 9.961886 10.677177l0 86.479607C734.453976 259.875005 729.985198 264.42974100000004 724.49209 264.42974100000004zM684.588265 284.912238l-34.896788 0c-5.511527 0-9.979282-4.588505-9.979282-10.257621l0-117.603465 54.854329 0L694.566524 274.65256999999997C694.568571 280.321686 690.100816 284.912238 684.588265 284.912238zM684.587242 264.42974100000004l-34.895765 0 0 5.111414c0 2.850931 2.226714 5.145184 4.992711 5.145184l24.930809 0c2.7486 0 4.971222-2.294252 4.971222-5.145184L684.586219 264.42974100000004z"
                   horiz-adv-x="1024"/>


            <glyph glyph-name="huanhuo" unicode="&#58886;"
                   d="M188.783109 701.436746C256.76441 769.42828 344.458681 813.538917 441.342242 827.453834c118.413923 17.022699 236.411361-13.171997 332.180542-84.883249 95.788623-71.765487 157.907403-176.526459 174.928055-294.939359 35.116799-244.617254-135.326105-472.080825-379.789862-507.219113-102.507652-14.703887-207.618595 6.782473-295.991318 60.432371-15.09786 9.188266-19.911492 28.881794-10.743692 43.979654 9.254781 14.96483 28.860305 19.909445 43.97863 10.721179 75.68168-45.991474 165.783791-64.370053 253.67556-51.768037 209.499431 30.062689 355.569228 225.055732 325.505515 434.753685-14.57188 101.522208-67.826781 191.273325-149.941987 252.756631C653.052015 752.799554 551.92378 778.618593 450.422038 764.00271c-209.717396-30.052456-355.744213-225.089501-325.616032-434.697403 7.898901-54.875818 26.934442-106.161878 56.71163-152.37234 9.540284-14.921851 5.186116-34.788318-9.583263-44.240597-14.855336-9.582239-34.678824-5.294586-44.240597 9.53926-34.745339 54.087872-56.997132 113.907283-66.251913 177.970344-17.000186 118.414947 13.149485 236.479923 84.959997 332.268546C159.442874 669.9291479999999 173.620781 686.2959069999999 188.783109 701.436746L188.783109 701.436746 188.783109 701.436746zM461.471698 505.700783M332.710103 198.33644000000004L332.710103 539.6694319999999l-53.54245 0c-13.385868 0-20.078291 7.42511-20.078291 22.309098 0 11.886725 6.693446 18.579147 20.078291 20.078291l89.237417 0c10.387581 0 15.616676-4.461615 15.616676-13.385868l0-370.335537c-1.499144-14.883989-10.422374-22.309098-26.771737-22.309098C340.866876 176.028365 332.710103 183.452451 332.710103 198.33644000000004zM569.189002 539.6694319999999l-15.615653-111.546515c14.848173 7.42511 32.695656 11.886725 53.541427 13.385868 62.46568-7.459902 97.394191-49.079812 104.85307-124.932384-4.460592-92.235704-49.078789-139.084709-133.855614-140.54906-62.46568 1.464351-100.391455 23.041786-113.777323 64.697511 0 11.886725 5.925966 18.579147 17.847483 20.078291 4.461615 0 12.618389-5.228071 24.539906-15.616676 23.77345-17.847483 48.312332-26.771737 73.619718-26.771737 47.581692 2.963495 73.621764 32.697703 78.083379 89.237417-2.998287 55.006801-26.771737 84.009346-71.389934 87.00661-16.383132 0-34.230616-3.729951-53.541427-11.154038-7.460925-2.997264-12.653181-4.462638-15.617699-4.462638-11.921517 0-17.847483 5.194302-17.847483 15.616676 0 4.461615 1.465374 15.616676 4.462638 33.464159l22.308075 140.54906c-1.499144 8.924253 4.460592 13.385868 17.847483 13.385868l140.54906 0c13.384845-1.499144 20.809955-8.191566 22.309098-20.078291-1.499144-14.883989-8.924253-22.309098-22.309098-22.309098L569.189002 539.670455z"
                   horiz-adv-x="1024"/>


            <glyph glyph-name="tuihuo" unicode="&#58894;"
                   d="M88.756659 50.73767299999997c0.030206 0.6887 0.070481 1.374379 0.104715 2.062071C88.7919 52.12212099999999 88.756659 51.43342099999995 88.756659 50.73767299999997zM462.42148 118.20203800000002c13.860582-4.042586 28.369589 3.918741 32.411168 17.78033l143.447862 483.399631c0.469202 1.456942 0.811538 2.970269 1.01996 4.526891 0.009062 0.066453 0.017117 0.1319 0.024165 0.198354 0.042289 0.336295 0.079543 0.674603 0.108742 1.014926 0.013089 0.142976 0.022151 0.285951 0.03222 0.428927 0.020137 0.269841 0.036247 0.539683 0.046316 0.811538 0.008055 0.19936 0.012082 0.397714 0.01611 0.596067 0.002014 0.14801 0.011076 0.295013 0.011076 0.443023 0 0.084577-0.006041 0.168147-0.007048 0.251718-0.002014 0.207415-0.008055 0.412817-0.015103 0.619225-0.008055 0.240642-0.017117 0.482291-0.031213 0.721926-0.010069 0.162106-0.023158 0.323205-0.036247 0.484305-0.022151 0.290986-0.04833 0.581971-0.08055 0.869936-0.009062 0.082563-0.021144 0.165127-0.031213 0.246683-1.437811 11.796497-10.728207 21.161402-22.489464 22.712989-0.040275 0.005034-0.08055 0.010069-0.120824 0.015103-0.355425 0.045309-0.711858 0.08357-1.070304 0.114783-0.135928 0.012082-0.272862 0.021144-0.407783 0.031213-0.270848 0.019131-0.54069 0.03524-0.813552 0.046316-0.209429 0.008055-0.416844 0.012082-0.625267 0.01611-0.137941 0.002014-0.273869 0.010069-0.41181 0.010069L331.902845 653.542101c-14.437519 0-26.13937-11.702858-26.13937-26.140377 0-14.436512 11.702858-26.140377 26.13937-26.140377L578.36969 601.261347 444.64115 150.61119199999996C440.600578 136.74960299999998 448.560898 122.24059599999998 462.42148 118.20203800000002zM936.486413 524.90128C887.318903 712.866923 724.93583 858.836996 520.280298 877.550695 259.159457 901.42662 28.120892 709.102234 4.24396 447.978372c-23.879952-261.120841 168.446448-492.1584 429.569303-516.037345 204.538735-18.705644 390.578235 95.271113 473.095317 271.03449 1.884862 3.209904 3.114251 6.871893 3.475718 10.82386 1.313966 14.354956-9.255156 27.047568-23.60709 28.362541-10.680884 0.975658-20.443503-4.635633-25.278496-13.485019-0.001007-0.002014-0.006041-0.002014-0.007048-0.004027-0.007048-0.01611-0.015103-0.030206-0.021144-0.046316-0.477257-0.875978-0.902156-1.785182-1.279733-2.721572-67.366698-143.999627-213.794898-243.780514-383.272381-243.780514-233.407732 0-422.621895 189.213156-422.621895 422.620888 0 233.407732 189.214163 422.621895 422.621895 422.621895 195.841386 0 360.559392-133.212015 408.511609-313.965443l-75.605921-17.029204 103.938256-76.644005c0.425906-0.343343 0.870943-0.661514 1.322021-0.974651 5.295133-3.68414 12.045194-5.240762 18.833516-3.711325 6.791343 1.529437 12.221397 5.829781 15.426266 11.426976l0.776297 1.44788 61.044557 113.804582L936.486413 524.90128z"
                   horiz-adv-x="1027"/>


            <glyph glyph-name="baoyou" unicode="&#58942;"
                   d="M512 867.0208A483.0208 483.0208 0 1 1 995.0208 384 483.5328 483.5328 0 0 1 512 867.0208z m0-913.7152A430.7968 430.7968 0 1 0 942.7968 384 431.3088 431.3088 0 0 0 512-46.79679999999996zM700.2112 432.3328c0 0.8192 1.2288 5.8368 10.24 35.4304 12.1856 39.2192 21.0944 70.9632 26.4192 93.5936 7.0656 20.48 6.7584 35.4304-0.9216 45.4656s-20.992 13.6192-39.8336 12.0832h-91.136c-20.48 3.2768-34.6112 0.512-43.2128-8.192a38.0928 38.0928 0 0 1-7.168-34.9184v-422.2976c0-8.2944 3.3792-22.528 27.648-24.8832a26.9312 26.9312 0 0 1 26.2144 24.8832V557.3632c0 8.0896 3.4816 9.3184 5.7344 10.24h59.1872a10.24 10.24 0 0 0 7.168-2.048 13.4144 13.4144 0 0 0 0.7168-10.24 566.8864 566.8864 0 0 0-34.5088-103.6288c-7.5776-22.8352-7.9872-28.672-5.5296-32.0512A204.8 204.8 0 0 1 653.824 394.24a207.0528 207.0528 0 0 0 43.6224-122.88 23.7568 23.7568 0 0 0-4.608-21.0944c-6.8608-6.8608-21.8112-9.0112-44.032-6.144a30.72 30.72 0 0 1-33.0752-26.9312c0-17.408 10.24-26.9312 28.8768-26.9312 40.96-0.6144 70.5536 7.3728 87.8592 24.3712a66.6624 66.6624 0 0 1 18.6368 49.9712c-5.632 72.8064-20.48 121.4464-43.6224 147.456-8.2944 14.7456-7.5776 18.7392-7.2704 20.2752zM520.4992 550.1952a38.0928 38.0928 0 0 1-30.72 9.6256h-62.8736v55.5008c-1.2288 10.24-7.168 21.9136-29.5936 24.064a23.7568 23.7568 0 0 1-24.1664-24.8832v-54.6816h-60.416a38.1952 38.1952 0 0 1-30.72-9.728 43.52 43.52 0 0 1-8.8064-35.5328v-274.6368a41.5744 41.5744 0 0 1 8.3968-34.304 35.7376 35.7376 0 0 1 27.0336-10.24h179.2c27.8528 0 43.2128 14.6432 43.2128 40.96V514.2528a45.6704 45.6704 0 0 1-10.5472 35.9424zM477.0816 363.52v-102.4a15.36 15.36 0 0 0-2.7648-10.24 9.4208 9.4208 0 0 0-6.9632-1.024h-40.448V363.52z m0 137.1136v-83.2512h-50.176v88.576h40.3456c9.8304 0 9.8304-3.3792 9.8304-5.7344zM373.1456 363.52v-113.7664h-36.352a12.288 12.288 0 0 0-8.8064 2.3552 10.24 10.24 0 0 0-1.024 7.4752V363.52z m-46.1824 135.68a5.2224 5.2224 0 0 0 0.6144 4.1984c0.512 0.6144 2.9696 2.6624 11.264 2.6624h34.304v-88.8832h-46.08v81.92z"
                   horiz-adv-x="1024"/>


            <glyph glyph-name="chakangengduo" unicode="&#59001;"
                   d="M602.763636 384L442.181818 544.581818c-13.963636 13.963636-13.963636 34.909091 0 48.872727 13.963636 13.963636 34.909091 13.963636 48.872727 0l186.181819-186.181818c13.963636-13.963636 13.963636-34.909091 0-48.872727l-186.181819-186.181818c-13.963636-13.963636-34.909091-13.963636-48.872727 0-13.963636 13.963636-13.963636 34.909091 0 48.872727l160.581818 162.909091zM512-128C228.072727-128 0 100.072727 0 384S228.072727 896 512 896s512-228.072727 512-512-228.072727-512-512-512z m0 46.545455c256 0 465.454545 209.454545 465.454545 465.454545S768 849.454545 512 849.454545 46.545455 640 46.545455 384s209.454545-465.454545 465.454545-465.454545z"
                   horiz-adv-x="1024"/>


            <glyph glyph-name="sousuo" unicode="&#58902;"
                   d="M454.879525-10.51289c-61.173044 0-120.536063 11.992627-176.433901 35.629426-53.98134 22.83342-102.445491 55.510666-144.066391 97.121888S60.081086 212.333154 37.247667 266.304815c-23.646479 55.897837-35.629427 115.260856-35.629427 176.4339s11.992627 120.536063 35.629427 176.433901C60.081086 673.153956 92.758333 721.618107 134.369554 763.239007S224.464285 837.546833 278.435945 860.370573c55.897837 23.646479 115.260856 35.629427 176.433901 35.629427S575.415588 884.017052 631.313426 860.370573c53.98134-22.83342 102.445491-55.510666 144.066391-97.121887s74.298147-90.085051 97.121887-144.066391c23.646479-55.897837 35.629427-115.260856 35.629426-176.4339s-11.992627-120.536063-35.629426-176.433901c-22.83342-53.98134-55.510666-102.445491-97.121887-144.066391S685.294766 47.949956 631.313426 25.126216c-55.897837-23.656158-115.260856-35.639106-176.433901-35.639106z m0 850.38275c-218.974333 0-397.121466-178.147133-397.121466-397.121465s178.147133-397.121466 397.121466-397.121466S852.000991 223.774062 852.000991 442.748395 673.853858 839.86986 454.879525 839.86986zM979.525494-127.999981a28.011834 28.011834 0 0 0-19.852202 8.217708L726.451061 113.439959c-10.966623 10.966623-10.966623 28.73778 0 39.694724 10.956944 10.966623 28.73778 10.966623 39.694723 0l233.222232-233.222232c10.966623-10.966623 10.966623-28.73778 0-39.694724-5.478472-5.478472-12.660497-8.217708-19.842522-8.217708z"
                   horiz-adv-x="1064"/>


            <glyph glyph-name="ai-moments" unicode="&#58976;"
                   d="M645.037 703.247v0 0 0zM511.998 895.998c-20.158 0-40.316 0-56.44-4.015-48.377-4.015-92.724-16.063-133.039-32.125 0 0 346.708-341.332 354.769-353.379v361.41c-12.093 4.015-20.158 8.032-32.252 8.032-40.316 12.046-84.661 20.079-133.040 20.079v0l0.002-0.002zM645.037 703.247v0 0 0 0zM830.483 518.525v0 0 0zM874.831 747.418c-12.093 12.045-28.219 28.108-44.346 40.158-36.284 28.108-76.599 52.204-116.913 68.267 0 0 4.031-485.897 0-501.959l258.015 257.004c-4.031 8.032-12.093 20.079-16.126 28.108-20.158 40.158-48.377 76.299-80.629 108.424v0l-0.001-0.002zM830.483 518.525v0 0 0 0zM834.517 249.474v0 0 0zM987.712 570.729c0 0-342.676-345.349-354.769-353.379h366.864c4.031 12.045 8.064 20.079 8.064 32.125 12.093 44.173 16.126 88.345 16.126 132.518 0 20.079 0 40.158-4.031 56.219-4.031 48.187-12.093 92.361-32.252 132.518v0l-0.002-0.001zM834.517 249.474v0 0 0 0zM645.037 60.737v0 0 0zM479.746 177.192l258.015-257.003c8.064 4.016 20.158 8.032 28.219 16.063 36.284 20.079 72.567 48.187 104.818 80.313 12.093 12.045 28.219 28.108 40.316 44.173 28.219 36.142 52.409 76.299 68.535 116.455 4.032-0.001-483.777-0.001-499.903-0.001v0 0zM645.037 60.737v0 0 0 0zM378.958 60.737v0 0 0zM346.708 261.522v-365.426c12.093-4.016 20.158-8.032 32.251-8.032 44.346-12.045 88.693-16.063 133.039-16.063 20.158 0 40.316 0 56.44 4.016 48.377 4.016 92.724 16.063 133.039 32.125 0-4.016-346.708 337.317-354.769 353.379v0l0 0.001zM378.958 60.737v0 0 0 0zM193.512 249.474v0 0 0zM310.425 410.1l-258.015-257.003c4.031-8.032 12.093-20.079 16.126-28.108 20.158-36.142 48.377-72.282 80.629-104.407 12.093-12.045 28.219-28.108 44.346-40.158 36.284-28.108 76.599-52.204 116.913-68.267 0.001-4.016-4.030 485.897 0.001 497.943v0zM193.512 249.474v0 0 0 0zM193.512 514.51v0 0 0zM16.126 514.51c-12.092-44.173-16.126-88.346-16.126-132.518 0-20.079 0-40.158 4.031-56.219 4.031-48.187 16.126-92.361 32.251-132.518 0 0 342.676 345.349 354.769 353.379l-366.863 0c-4.031-12.045-4.031-20.079-8.064-32.125v0l0.002 0.001zM193.512 514.51v0 0 0 0zM378.958 699.229v0 0 0zM253.983 823.716c-36.284-20.079-72.567-48.187-104.818-80.313-16.126-12.045-28.219-28.108-40.316-44.173-28.219-36.142-52.409-76.299-68.535-116.455 0 0 487.81 4.015 503.935 0l-258.016 257.004c-12.093-4.015-24.19-8.032-32.251-16.063v0h0.001zM378.958 699.229v0 0 0z"
                   horiz-adv-x="1024"/>


            <glyph glyph-name="list" unicode="&#58969;"
                   d="M380.371457 415.530792H100.097752A100.097752 100.097752 0 0 0 0 515.628543V795.902248A100.097752 100.097752 0 0 0 100.097752 896h280.273705a100.097752 100.097752 0 0 0 100.097751-100.097752v-280.273705a100.097752 100.097752 0 0 0-100.097751-100.097751zM100.097752 815.921799a20.01955 20.01955 0 0 1-20.019551-20.019551v-280.273705a20.01955 20.01955 0 0 1 20.019551-20.01955h280.273705a20.01955 20.01955 0 0 1 20.01955 20.01955V795.902248a20.01955 20.01955 0 0 1-20.01955 20.019551zM380.371457-128H100.097752A100.097752 100.097752 0 0 0 0-27.902247999999986V252.37145699999996a100.097752 100.097752 0 0 0 100.097752 100.097751h280.273705a100.097752 100.097752 0 0 0 100.097751-100.097751v-280.273705a100.097752 100.097752 0 0 0-100.097751-100.097752zM100.097752 272.39100699999995a20.01955 20.01955 0 0 1-20.019551-20.01955v-280.273705a20.01955 20.01955 0 0 1 20.019551-20.019551h280.273705a20.01955 20.01955 0 0 1 20.01955 20.019551V252.37145699999996a20.01955 20.01955 0 0 1-20.01955 20.01955zM983.960899 717.826002H622.608016a40.039101 40.039101 0 0 0 0 80.078201h361.352883a40.039101 40.039101 0 0 0 0-80.078201zM983.960899 513.6265880000001H622.608016a40.039101 40.039101 0 0 0 0 80.078202h361.352883a40.039101 40.039101 0 0 0 0-80.078202zM983.960899 173.29423299999996H622.608016a40.039101 40.039101 0 0 0 0 80.078201h361.352883a40.039101 40.039101 0 0 0 0-80.078201zM983.960899-30.90518099999997H622.608016a40.039101 40.039101 0 0 0 0 80.078202h361.352883a40.039101 40.039101 0 0 0 0-80.078202z"
                   horiz-adv-x="1024"/>


            <glyph glyph-name="message" unicode="&#58890;"
                   d="M636.594 41.432000000000016c-17.145 0-31.102-12.916-31.102-28.816 0-45.721-40.189-82.984-89.58-82.984s-89.636 37.229-89.636 82.984c0 15.9-13.934 28.816-31.102 28.816s-31.102-12.916-31.102-28.816c0-77.566 68.056-140.593 151.795-140.593s151.784 63.05 151.784 140.593c0.023 15.9-13.911 28.816-31.057 28.816z m275.883 107.64H155.685a320.05 320.05 0 0 1 84.116 99.124 296.046 296.046 0 0 1 35.708 140.148V539.6800000000001c0 68.228 33.468 131.964 91.82 174.725 58.101 42.532 133.381 57.746 206.661 41.72 105.754-23.169 182.623-117.103 182.623-223.36v-144.422a296.652 296.652 0 0 1 43.436-153.636c8.332-13.83 27.432-18.78 42.292-10.95s20.277 25.364 11.819 39.195a242.484 242.484 0 0 0-35.434 125.39V532.88c0 63.622-22.518 126.432-63.336 176.92-41.926 51.745-101.273 88.162-167.34 102.576q-9.716 2.103-19.432 3.634a56.889 56.889 0 1 1-104.016 0 312.655 312.655 0 0 1-136.021-56.34c-35.16-25.787-64.273-58.866-84.048-95.855a259.915 259.915 0 0 1-31.49-124.134v-151.337c0-80.104-41.15-156.516-110.36-204.604-19.432-13.488-27-35.96-19.284-57.289s28.245-35.034 52.511-35.034h776.316c17.146 0 31.354 12.905 31.354 28.816s-13.934 28.839-31.102 28.839z"
                   horiz-adv-x="1024"/>


            <glyph glyph-name="cart" unicode="&#58901;"
                   d="M895.168 128.22400000000005h-640l-192 544h841.6c70.4 0 128-57.6 128-128 0-16-3.2-28.8-6.4-41.6l-131.2-374.4z m-595.2 64h550.4l115.2 329.6c3.2 6.4 3.2 12.8 3.2 22.4 0 35.2-28.8 64-64 64h-748.8l144-416zM335.168-127.77599999999995c-60.8 0-112 51.2-112 112s51.2 112 112 112 112-51.2 112-112-48-112-112-112z m0 160c-25.6 0-48-22.4-48-48s22.4-48 48-48 48 22.4 48 48-19.2 48-48 48zM815.168-127.77599999999995c-60.8 0-112 51.2-112 112s51.2 112 112 112 112-51.2 112-112-48-112-112-112z m0 160c-25.6 0-48-22.4-48-48s22.4-48 48-48 48 22.4 48 48-19.2 48-48 48zM69.568 845.024l76.8-211.2-60.8-22.4-76.8 211.2c-6.4 16 3.2 35.2 19.2 41.6 16 6.4 35.2-3.2 41.6-19.2z"
                   horiz-adv-x="1056"/>


            <glyph glyph-name="home" unicode="&#58883;"
                   d="M1002.599861 395.336879l-17.112402-17.112402c-4.889258-4.889258-12.223144-4.889258-17.124938 0l-36.669433 34.224803v-339.891165c0-110.033371-90.47634-200.509711-200.509711-200.509711H278.814212c-112.478-2.444629-202.95434 88.031712-202.954341 198.065082V412.44928l-34.23734-34.224803c-4.889258-4.889258-12.223144-4.889258-17.112402 0l-17.112402 17.112402c-4.889258 4.889258-4.889258 12.223144 0 17.112401L489.102438 894.166528c2.444629 2.444629 9.778515 2.444629 14.667774 0 4.889258 2.444629 12.223144 2.444629 17.124938 0l481.704711-481.717248c4.889258-4.889258 4.889258-12.223144 0-17.112401zM403.515356-54.58765800000003c0-9.778515 2.444629-17.124938 2.444629-24.458825H626.039263c2.444629 7.333887 2.444629 17.124938 2.444629 24.458825v276.305742c0 56.239-44.015856 100.254856-100.254855 100.254856h-24.458825c-56.239 0-100.254856-44.015856-100.254856-100.254856v-276.305742zM880.343346 461.354394L503.770212 837.914992 127.209614 461.354394v-391.240908c0-83.142454 68.462144-151.604598 151.604598-151.604598h78.240659c-2.444629 7.333887-2.444629 17.112402-2.444629 24.446289V221.73062100000004c0 83.142454 68.462144 151.604598 151.604598 151.604598h24.446289c83.142454 0 151.604598-68.462144 151.604598-151.604598v-276.305742c0-9.778515 0-17.124938-2.444629-24.458825h53.794371c83.142454 0 151.604598 68.462144 151.604598 151.604598V461.354394h-4.876721z m0 0"
                   horiz-adv-x="1033"/>


            <glyph glyph-name="afterSale" unicode="&#58916;"
                   d="M508.396373-128c264.533333 0 477.866667 200.533333 507.733334 452.266667 4.266667 21.333333-12.8 38.4-29.866667 38.4-17.066667 0-29.866667-12.8-29.866667-29.866667-25.6-221.866667-213.333333-396.8-443.733333-396.8-192 0-354.133333 119.466667-418.133333 290.133333h89.6l-128 128c-4.266667 4.266667-12.8 8.533333-21.333334 8.533334-21.333333 0-34.133333-17.066667-29.866666-38.4C30.529707 72.53333299999997 248.129707-128 508.396373-128M0.66304 443.733333c-4.266667-21.333333 12.8-38.4 29.866667-38.4 17.066667 0 29.866667 12.8 29.866666 29.866667 25.6 221.866667 213.333333 396.8 443.733334 396.8 192 0 354.133333-119.466667 418.133333-290.133333h-89.6l128-128c4.266667-4.266667 12.8-8.533333 21.333333-8.533334 21.333333 0 34.133333 17.066667 29.866667 38.4C986.26304 695.466667 772.929707 896 508.396373 896S30.529707 695.466667 0.66304 443.733333zM252.396373 409.6l-17.066666 51.2C290.796373 512 329.196373 567.4666669999999 354.796373 627.2l51.2-8.533333c-8.533333-17.066667-12.8-29.866667-21.333333-42.666667h119.466667c-8.533333 17.066667-17.066667 34.133333-25.6 46.933333l55.466666 8.533334c8.533333-17.066667 17.066667-34.133333 21.333334-55.466667h157.866666v-42.666667h-162.133333v-29.866666h136.533333v-42.666667h-136.533333v-29.866667h140.8v-42.666666h-140.8v-29.866667h170.666667v-42.666667H307.86304v149.333334c-17.066667-21.333333-34.133333-38.4-55.466667-55.466667z m439.466667-298.666667H640.66304v25.6H359.06304v-25.6H307.86304v170.666667h384v-170.666667z m-192 422.4H359.06304v-29.866666h140.8v29.866666z m0-72.533333H359.06304v-29.866667h140.8v29.866667z m0-72.533333H359.06304v-29.866667h140.8v29.866667z m140.8-209.066667v55.466667H359.06304v-55.466667H640.66304z"
                   horiz-adv-x="1024"/>


            <glyph glyph-name="service" unicode="&#59003;"
                   d="M517.25824 104.66815999999994c-39.36256 3.70688-74.78784 28.22144-92.46208 63.9744a1.792 1.792 0 0 0 0.59904 2.26304 1.7408 1.7408 0 0 0 1.14688 0.29184 1.80736 1.80736 0 0 0 1.13152-0.55296c0.9472-0.96768 22.53824-22.57408 73.91744-27.44832 10.57792-0.95744 21.27872-1.2032 31.8208-0.7424 74.35264 3.00032 96.55808 31.8976 97.46944 33.13152a1.8944 1.8944 0 0 0 1.68448 0.77824 1.73056 1.73056 0 0 0 1.37728-2.41664c-7.3984-17.09568-38.95296-68.13184-102.93248-69.74464a115.23072 115.23072 0 0 0-13.75232 0.46592zM490.85952-72.97536000000002c-34.048 0-61.7472 26.97728-61.7472 60.1344 0 33.17248 27.6992 60.16 61.7472 60.16 25.48224 0 48-15.0272 57.36448-38.27712l1.41312-3.51232 3.77344 0.32256c103.69024 17.72032 295.07584 88.17664 326.80448 232.52992l1.11616 5.07904-5.0944 1.03424c-18.69824 3.80928-14.40768 14.61248-25.09824 30.42816l-5.89824 8.73472-3.21536-10.04032c-26.99776-84.29056-84.5824-154.25024-162.14528-196.992l-2.28352-1.31072-0.6656 0.31232a0.96768 0.96768 0 0 0-0.33792 0.6912 1.2288 1.2288 0 0 0 0.22016 0.68608l0.39424 0.384c81.54112 74.61888 82.10432 150.9632 74.34752 242.99008-7.23456 86.03136-56.59648 168.98048-85.38112 210.76992l-2.75968 4.00896-2.688-1.65888a12.91776 12.91776 0 0 1-7.09632 2.11968c-6.42048 0-11.76064-4.52608-12.97408-11.00288-3.13344-29.91616-10.2144-47.10912-12.30848-51.67616-16.9216-36.98688-44.35968-58.46528-83.8912-65.66912-34.81088-6.35904-70.08768-13.37344-104.20224-20.15744-30.21824-6.01088-61.4656-12.22656-92.26752-17.95584-45.22496-8.42752-80.128-59.05408-73.23648-106.2144 14.37696-98.17088 75.904-170.3424 101.76512-194.29376a34.91328 34.91328 0 0 1-2.97984-4.01408c-82.75456 37.47328-148.43392 107.40736-180.61312 192.512l-3.15392 8.3456-5.61664-6.93248c-13.53216-16.7168-33.29024-26.30656-54.20032-26.30656-38.85056 0-70.46144 31.96416-70.46144 71.24992v150.4768c0 34.5088 34.66752 63.95392 68.32128 70.016l3.456 0.62464 0.66048 3.45088c36.55168 190.20288 191.64672 312.89344 382.8992 312.89344 186.88512 0 336.9472-113.52576 379.57632-298.07104l0.9216-3.968h4.0704c0.46592 0 0.9216 0.03584 1.3824 0.08192h0.13312c19.7376 0 48.128-7.48544 61.78816-21.05344a71.21408 71.21408 0 0 0 21.21216-50.85696v-152.2688c0-29.02016-37.90336-55.05536-64.8704-66.32448l-2.56512-1.0752-0.50176-2.73408c-29.94176-165.24288-211.968-257.49504-362.16832-272.28672l-3.38432-0.27648-1.06496-3.23072c-8.2432-25.04704-31.74912-41.87648-58.496-41.87648z m0.01024 79.33952c-11.46368 0-20.7872-8.61696-20.7872-19.2 0-10.5728 9.32352-19.1744 20.7872-19.1744 10.40384 0 17.33632 6.90176 19.58912 13.74208l2.07872 6.31296-2.28864 5.6832c-2.53952 6.29248-9.51296 12.63616-19.3792 12.63616zM124.82048 483.6864c-14.12096-2.5344-24.37632-15.0272-24.37632-29.70112v-150.47168c0-16.70656 13.23008-30.29504 29.50144-30.29504 11.6224 0 18.9952 6.95808 22.35904 11.1104l50.5344 62.4128L220.16 270.09024l44.43136-85.6576c-61.75744 162.31424 21.28896 214.82496 75.904 225.00352 30.07488 5.59104 60.72832 11.68896 90.368 17.58208l1.32608 0.26112c34.52416 6.8608 69.87776 13.89056 104.92928 20.29056 26.09664 4.76672 42.752 17.86368 54.00576 42.46528 2.26304 4.92544 6.656 18.57024 8.7296 38.41536l0.21504 2.03264 0.3072 1.6128c4.48 24.13056 24.99584 42.00448 51.05664 44.46208 1.8176 0.17408 3.58912 0.25088 5.30944 0.25088 28.04224 0 42.50112-21.39648 43.10016-22.30784 38.0416-55.22432 75.136-119.90528 88.30464-200.79616 3.80416-23.36768-2.8416-112.86528-2.2272-123.29472l18.70336 60.75904 30.32064 94.66368-36.41856 98.64704c-43.86816 118.82496-157.95712 198.66624-283.87328 198.66624-125.22496 0-239.08352-79.25248-283.32544-197.21728l-28.16-75.0848-50.44736 61.83936a37.67808 37.67808 0 0 1-2.34496 2.27328l-12.11904 11.15648-13.43488-2.42688z m761.52832 1.4848c-1.47456-1.98144-2.51392-3.58912-3.09248-4.77696l-34.80064-94.16704 36.38784-88.00768 0.30208-0.44544a31.488 31.488 0 0 1 19.80928-13.12768l9.93792-2.03776 8.832 3.69664c11.67872 4.86912 19.23072 16.07168 19.23072 28.53376l0.01024 152.25344c0 16.57344-13.17888 30.17216-30.0032 30.95552-1.4592-0.0512-2.3808-0.08192-3.32288-0.08192h-13.76256l-9.52832-12.79488zM514.6624 724.096c143.0016 0 272.52224-90.5984 322.29888-225.43872l4.17792-11.32032 5.23776 10.87488c1.73056 3.59936 3.98848 7.22432 7.10656 11.41248l1.3312 1.78176-0.39424 2.18624c-30.06976 165.888-172.89216 286.28992-339.59424 286.28992-167.81824 0-310.76864-121.3952-339.90656-288.66048l-0.48128-2.75456 2.84672-2.62144c2.5344-2.32448 4.92032-4.51584 6.92736-6.97856l5.632-6.912 3.13344 8.3456c50.20672 133.85728 179.47648 223.7952 321.68448 223.7952z"
                   horiz-adv-x="1024"/>


            <glyph glyph-name="recycle" unicode="&#59137;"
                   d="M566.613333 570.666667a21.333333 21.333333 0 0 1 15.786667-25.386667l134.4-31.573333a26.453333 26.453333 0 0 1 5.76 0 25.173333 25.173333 0 0 1 13.44 3.84A24.96 24.96 0 0 1 746.666667 533.333333l31.573333 134.4a21.333333 21.333333 0 0 1-41.386667 9.6l-19.413333-82.773333-60.16 104.106667a149.333333 149.333333 0 0 1-258.56 0l-64-111.146667a12.586667 12.586667 0 0 1 4.693333-17.493333l14.72-8.533334a12.586667 12.586667 0 0 1 17.493334 4.693334l64 111.146666a92.16 92.16 0 0 0 7.04 10.666667 106.666667 106.666667 0 0 0 170.666666 0 92.16 92.16 0 0 0 7.04-10.666667l65.066667-112.64-93.226667 21.333334a21.333333 21.333333 0 0 1-25.6-15.36zM903.04 244.48000000000002a150.613333 150.613333 0 0 1-19.413333 62.293333l-57.813334 100.053334a12.8 12.8 0 0 1-17.493333 4.693333l-14.72-8.533333a12.586667 12.586667 0 0 1-4.693333-17.493334l57.813333-100.053333c2.133333-3.84 4.053333-7.893333 5.76-11.733333a106.666667 106.666667 0 0 0-85.333333-147.413334 116.48 116.48 0 0 0-12.16 0h-108.8L691.626667 170.66666699999996A21.333333 21.333333 0 1 1 661.333333 201.60000000000002l-82.986666-82.773333a24.746667 24.746667 0 0 1 0-34.986667L661.333333 0a21.333333 21.333333 0 0 1 30.08 0 21.333333 21.333333 0 0 1 0 30.08L640 82.77333299999998h114.346667a149.333333 149.333333 0 0 1 64 14.08 149.333333 149.333333 0 0 1 85.333333 147.626667zM429.866667 125.44000000000005h-122.88a111.786667 111.786667 0 0 0-99.413334 56.533333A106.666667 106.666667 0 0 0 197.76 256a108.373333 108.373333 0 0 0 11.52 29.44l59.946667 103.68 22.826666-80.64a23.466667 23.466667 0 0 1 22.613334-17.066667 21.333333 21.333333 0 0 1 6.4 0 23.893333 23.893333 0 0 1 16.426666 29.226667l-36.693333 130.133333a27.093333 27.093333 0 0 1-13.013333 16.426667 27.52 27.52 0 0 1-21.333334 2.56L137.6 433.066667a23.68 23.68 0 0 1 12.8-45.44l82.133333 23.253333-60.16-104.106667a149.333333 149.333333 0 0 1 0-149.333333 151.04 151.04 0 0 1 129.28-74.666667h128a12.8 12.8 0 0 1 12.8 12.8v17.066667a12.8 12.8 0 0 1-12.586666 12.8z m-169.173334 293.333333z"
                   horiz-adv-x="1024"/>


            <glyph glyph-name="secret" unicode="&#58897;"
                   d="M995.82219 499.923349L879.73636 616.009179l116.085829 116.085829c37.495423 37.495423 37.495423 98.288002 0 135.783425-37.495423 37.495423-98.288002 37.495423-135.783425 0L523.579836 531.319517C472.886025 559.71605 414.293177 575.9140729999999 352.000781 575.9140729999999 157.624509 575.9140729999999 0.043745 418.333309 0.043745 223.95703600000002s157.580764-351.957036 351.957036-351.957036 351.957036 157.580764 351.957036 351.957036c0 62.292396-16.198023 120.885244-44.594556 171.579055l84.689662 84.689662 116.085829-116.085829c18.697718-18.697718 43.294715-28.09657 67.891712-28.09657s49.094007 9.398853 67.891712 28.09657C1033.317613 401.635347 1033.317613 462.427926 995.82219 499.923349zM465.086977 110.87084100000004C434.890663 80.57453899999996 394.695569 63.97656500000005 352.000781 63.97656500000005s-82.889882 16.597974-113.086196 46.894276C208.618284 141.06715499999996 192.02031 181.262248 192.02031 223.95703600000002s16.597974 82.889882 46.894276 113.086196C269.1109 367.33953399999996 309.305993 383.937508 352.000781 383.937508s82.889882-16.597974 113.086196-46.894276C495.383278 306.84691799999996 511.981252 266.65182500000003 511.981252 223.95703600000002S495.383278 141.06715499999996 465.086977 110.87084100000004z"
                   horiz-adv-x="1024"/>


            <glyph glyph-name="select" unicode="&#61488;"
                   d="M538.88-56.93439999999998c-14.2336 0-28.4672 3.9936-41.2672 11.9808l-120.32 75.008c-23.04 14.336-36.7616 39.1168-36.7616 66.2528V446.5664c0 4.4544-1.7408 8.6016-4.864 11.776L121.856 672.1536a77.92128 77.92128 0 0 0-16.9472 85.0944c12.1344 29.2864 40.448 48.1792 72.1408 48.1792h634.0096c32.768 0 61.44-19.8144 73.0624-50.4832 11.5712-30.6688 3.1744-64.512-21.4016-86.1696l-240.0256-211.5072c-3.584-3.1744-5.632-7.68-5.632-12.4928v-423.4752c0-28.7744-15.0016-54.3232-40.192-68.2496-11.9808-6.656-24.9856-9.984-37.9904-9.984zM177.1008 743.9872c-10.0352 0-14.08-7.168-15.36-10.2912-1.28-3.072-3.4816-11.0592 3.584-18.1248L379.136 501.76c14.7456-14.7456 22.8864-34.3552 22.8864-55.1936v-350.2592c0-5.7856 2.9184-11.0592 7.8336-14.1312l120.32-75.008c7.5264-4.6592 14.2848-1.8432 16.896-0.4096 2.56 1.4336 8.5504 5.7344 8.5504 14.5408V444.7744c0 22.4256 9.6256 43.776 26.4704 58.5728l240.0256 211.5072c7.7824 6.8608 5.7856 15.1552 4.5568 18.3808-1.2288 3.2256-5.1712 10.752-15.5648 10.752H177.1008zM872.0384 301.4144h-166.4c-16.9472 0-30.72 13.7728-30.72 30.72s13.7728 30.72 30.72 30.72h166.4c16.9472 0 30.72-13.7728 30.72-30.72s-13.7728-30.72-30.72-30.72zM872.0384 182.11839999999995h-166.4c-16.9472 0-30.72 13.7728-30.72 30.72s13.7728 30.72 30.72 30.72h166.4c16.9472 0 30.72-13.7728 30.72-30.72s-13.7728-30.72-30.72-30.72zM872.0384 62.87360000000001h-166.4c-16.9472 0-30.72 13.7728-30.72 30.72s13.7728 30.72 30.72 30.72h166.4c16.9472 0 30.72-13.7728 30.72-30.72s-13.7728-30.72-30.72-30.72z"
                   horiz-adv-x="1024"/>


            <glyph glyph-name="price" unicode="&#58946;"
                   d="M923.36244 557.470867c-22.549575 53.315276-54.826699 101.190657-95.931886 142.296867-41.10621 41.10621-88.980567 73.382311-142.295843 95.931886-55.213509 23.353894-113.847931 35.195593-174.274162 35.195593-60.424184 0-119.058606-11.841699-174.274162-35.195593-53.314253-22.549575-101.190657-54.826699-142.296867-95.931886s-73.382311-88.980567-95.931886-142.296867C75.004763 502.257358 63.164087 443.623959 63.164087 383.198751c0-60.432371 11.841699-119.065769 35.195593-174.280302 22.549575-53.315276 54.826699-101.19168 95.931886-142.295843 41.10621-41.107233 88.980567-73.382311 142.296867-95.932909 55.215556-23.351847 113.847931-35.19457 174.274162-35.19457 60.426231 0 119.060653 11.840676 174.274162 35.19457 53.315276 22.550599 101.190657 54.826699 142.295843 95.932909 41.10621 41.105187 73.382311 88.980567 95.931886 142.295843 23.352871 55.213509 35.195593 113.847931 35.195593 174.280302C958.558034 443.622936 946.716334 502.257358 923.36244 557.470867zM510.861572-3.315256c-213.121935 0-386.508891 173.386956-386.508891 386.514008 0 213.121935 173.386956 386.507868 386.508891 386.507868 213.120912 0 386.507868-173.386956 386.507868-386.507868C897.36944 170.070676 723.981461-3.315256 510.861572-3.315256zM636.14802 402.781762c16.068977 0 29.094642 13.754259 29.094642 30.708396 0 16.95516-13.025665 30.699186-29.094642 30.699186l-41.862433 0 46.479591 79.307254c8.033977 13.915941 2.635013 32.073486-12.047384 40.549531-14.684444 8.478092-33.099862 4.069689-41.133839-9.846252l-64.47443-110.010533L512.147868 464.189344c-0.808412 0.060375-1.622964 0.100284-2.448772 0.100284s-1.641383-0.039909-2.450818-0.100284l-12.175297 0-64.48978 110.010533c-8.035 13.915941-26.450419 18.324344-41.133839 9.846252-14.683421-8.476045-20.081361-26.63359-12.047384-40.549531l46.479591-79.307254-36.554544 0c-16.067954 0-29.093619-13.744026-29.093619-30.699186 0-16.954137 13.025665-30.708396 29.093619-30.708396l91.656513 0 0-52.05661-93.703125 0c-16.067954 0-29.093619-13.745049-29.093619-30.700209 0-16.954137 13.025665-30.699186 29.093619-30.699186l93.703125 0 0-137.704269c0-16.068977 13.745049-29.094642 30.717605-29.094642 16.95516 0 30.699186 13.025665 30.699186 29.094642L540.400329 289.325757l93.702102 0c16.068977 0 29.094642 13.745049 29.094642 30.699186 0 16.95516-13.025665 30.700209-29.094642 30.700209l-93.702102 0 0 52.05661L636.14802 402.781762z"
                   horiz-adv-x="1024"/>


            <glyph glyph-name="failVip" unicode="&#59108;"
                   d="M803.714 692.1320000000001H220.286c-84.62 0-153.464-68.844-153.464-153.464v-350.585c0-84.621 68.844-153.464 153.464-153.464h583.427c84.621 0 153.464 68.843 153.464 153.464V538.668c0 84.62-68.843 153.464-153.463 153.464z m-583.428-52.918h583.427c55.44 0 100.545-45.104 100.545-100.545v-33.074H119.741v33.074c0 55.44 45.104 100.545 100.545 100.545z m583.428-551.676H220.286c-55.441 0-100.545 45.105-100.545 100.545V452.676h784.518v-264.593c0-55.441-45.105-100.545-100.545-100.545zM337.615 214.98900000000003l-51.235 163.82h-73.533l85.972-227.64h76.242l84.526 227.64h-71.392zM485.364 378.80899999999997h70.496v-227.64h-70.496zM722.942 378.80899999999997H606.016v-227.64h70.653v84.472h38.509c28.362 0 49.456 6.469 63.276 19.41 13.82 12.939 20.729 30.901 20.729 53.882 0 22.36-6.342 39.596-19.021 51.708-12.681 12.113-31.755 18.168-57.22 18.168z m-0.465-89.984c-5.488-4.712-15.011-7.066-28.572-7.066h-17.236v50.778H696.7c13.146 0 22.1-2.484 26.864-7.455 4.76-4.969 7.143-11.024 7.143-18.167-0.001-7.352-2.745-13.381-8.23-18.09z"
                   horiz-adv-x="1024"/>


            <glyph glyph-name="man" unicode="&#58881;"
                   d="M828.875 130.34299999999996c-191.159 16.86-202.516 102.922-202.516 102.922v85.997c111.656 43.063 145.76 207.699 145.76 207.699 0 65.457-32.153 67.281-32.153 67.281V700.907c7.486 177.753-100.33 136.61-102.25 136.61-1.791 0-60.466 46.774-60.466 46.774-41.751 31.8-134.499-11.262-134.499-11.262l-3.839-0.064c-104.937-2.751-132.387-78.479-132.387-78.479l1.92-196.437c-54.804 0-47.35-76.719-47.35-76.719 0-84.142 147.616-200.148 147.616-200.148 9.47-110.472-49.174-166.46-49.174-166.46s-100.266-3.711-213.84-37.432c-2.72-0.863-5.344-1.6-7.967-2.463C30.617 78.57899999999995 0-24.855000000000018 0-24.855000000000018v-101.033l463.579-1.888 68.465 1.92h491.732V-47.25c1.92 115.815-194.901 177.593-194.901 177.593z m-244.65-129.22l-71.25-128.675-69.616 128.676-16.124 64.05 30.68 136.354h111.656l29.178-136.354-14.525-64.05z"
                   horiz-adv-x="1024"/>


            <glyph glyph-name="women" unicode="&#58882;"
                   d="M613.312 269.504v11.2h151.296V577.9200000000001c0 124.736-113.152 225.856-252.608 225.856S259.392 702.656 259.392 577.9200000000001v-297.216h151.36v-11.072h-0.256L115.648 75.84000000000003v-107.136H908.48v105.92l-295.168 194.88z m7.68-186.752c-72.192-69.824-109.504 36.416-109.504 36.416s-37.312-106.24-109.568-36.416c0 0-31.744 20.544-35.136 158.208l144.704-121.728L656.192 240.96000000000004c-3.392-137.6-35.2-158.208-35.2-158.208z"
                   horiz-adv-x="1025"/>


            <glyph glyph-name="root" unicode="&#59088;"
                   d="M798.336-68.67200000000003a161.664 161.664 0 1 0 0 323.328 161.664 161.664 0 0 0 0-323.328z m79.68 190.848l-43.84 6.72a10.112 10.112 0 0 0-7.424 5.632l-19.584 41.792a9.6 9.6 0 0 1-17.6 0l-19.584-41.792a9.728 9.728 0 0 0-7.424-5.632l-43.84-6.72c-8.064-1.216-11.264-11.648-5.44-17.6l31.744-32.512a10.624 10.624 0 0 0 2.816-9.152l-7.488-45.888c-1.408-8.448 7.04-14.912 14.272-10.88l39.232 21.696a9.344 9.344 0 0 0 9.152 0l39.232-21.696c7.232-3.968 15.616 2.432 14.272 10.88l-7.488 45.888a10.624 10.624 0 0 0 2.816 9.152l31.744 32.512c5.696 5.952 2.496 16.32-5.568 17.6z m-267.2-29.184c0-41.088 13.376-79.04 35.84-109.952H104c-35.712 0-49.344 35.904-33.472 72.32 0 0 26.304 58.496 118.592 185.856 28.032 38.016 57.024 75.328 86.912 111.872A290.24 290.24 0 0 1 474.304 273.91999999999996a289.856 289.856 0 0 1 197.568 78.656c22.144-27.072 43.648-54.72 64.768-82.624a187.52 187.52 0 0 1-125.824-176.96zM474.304 334.46400000000006c-132.864 0-240.576 112.448-240.576 251.136 0 138.624 107.712 251.072 240.576 251.072s240.576-112.448 240.576-251.136-107.712-251.072-240.576-251.072z"
                   horiz-adv-x="1024"/>


            <glyph glyph-name="logout" unicode="&#59089;"
                   d="M574.8-27.600000000000023H222c-67.2 0-121.8 54.7-121.8 121.8V673c0 67.2 54.7 121.8 121.8 121.8h352.8c67.2 0 121.8-54.7 121.8-121.8v-50.6c0-22.9-18.5-41.4-41.4-41.4s-41.4 18.5-41.4 41.4V673c0 21.5-17.5 39-39 39H222c-21.5 0-39-17.5-39-39v-578.8c0-21.5 17.5-39 39-39h352.8c21.5 0 39 17.5 39 39v44.5c0 22.9 18.5 41.4 41.4 41.4s41.4-18.5 41.4-41.4v-44.5c0-67.1-54.7-121.8-121.8-121.8zM860.6 342.20000000000005H470.3c-22.9 0-41.4 18.5-41.4 41.4s18.5 41.4 41.4 41.4h390.4c22.9 0 41.4-18.5 41.4-41.4s-18.6-41.4-41.5-41.4zM747.6 202.89999999999998c-10.6 0-21.2 4-29.3 12.1-16.2 16.2-16.2 42.4 0 58.6l110 110-110 110c-16.2 16.2-16.2 42.4 0 58.6 16.2 16.2 42.4 16.2 58.6 0l139.2-139.3c16.2-16.2 16.2-42.4 0-58.6L776.9 215.10000000000002c-8.1-8.1-18.7-12.2-29.3-12.2z"
                   horiz-adv-x="1024"/>


            <glyph glyph-name="posting" unicode="&#58936;"
                   d="M628.7 466.2c0 19.9-16.3 36.1-36.1 36.1H212.8c-19.9 0-36.1-16.3-36.1-36.1 0-19.9 16.3-36.1 36.1-36.1h379.7c19.9-0.1 36.2 16.2 36.2 36.1zM206.8 340.70000000000005c-19.9 0-36.1-16.3-36.1-36.1 0-19.9 16.3-36.1 36.1-36.1h268.3c7.8 5.3 11.4 15 8.6 24.1-1.7 5.5-2.6 11.3-2.6 17.2 0 11.1 3.2 21.8 9 30.9H206.8zM206.8 179.10000000000002c-19.9 0-36.1-16.3-36.1-36.1 0-19.9 16.3-36.1 36.1-36.1h275.6c-2 4-5.2 7.4-9.3 9.6-18.2 9.6-30.7 28.8-30.7 50.8v11.9H206.8zM532.4-20.600000000000023H140c-17.7 0-32.1 14.6-32.1 32.5V511.6c0 22.3 18.1 40.4 40.4 40.4h176.2c21.7 0 39.4 17.2 39.4 38.4V747.2c0 22.3 18.1 40.4 40.4 40.4h289.1c17.7 0 32.1-14.6 32.1-32.5v-267.3c0-11.9 9.7-21.6 21.6-21.6s21.6 9.7 21.6 21.6V755.1c0 42-33.8 76.2-75.3 76.2H330.5v-0.5c-11.8 1.8-23.8-1.7-32.9-10L77.1 618.2c-9.6-8.8-13.8-21.4-11.9-33.7h-0.5v-572.6c0-42 33.8-76.2 75.3-76.2h392.4c11.9 0 21.6 9.7 21.6 21.6v0.6c0 11.8-9.7 21.5-21.6 21.5zM98.5 588.2c-0.6 1.4-1.1 4 1.4 6.3L320.5 797.2c1.3 1.2 2.7 1.6 3.9 1.6 1 0 1.9-0.3 2.5-0.5 1.3-0.6 3.6-2 3.6-5.3v-202.5c0-3.2-2.7-5.9-6-5.9H104c-3.5-0.1-4.9 2.2-5.5 3.6zM768.7 298.5c-13.1 7.1-27.7 11.8-43.2 13.6-4.6 0.5-9.3 0.8-14.1 0.8-27 0-52-8.9-72.2-23.9-7.1-5.3-13.7-11.4-19.5-18.1-19.4-22.4-30.7-51.9-29.4-83.9 0.1-2.6 0.3-5.3 0.6-7.9 2.8-26.3 14.1-50.2 31-68.8 21.2-23.2 51.3-38.2 84.7-39.5 6.4-0.2 12.7 0 18.9 0.7 15.5 1.8 30 6.5 43.2 13.6 38 20.5 63.8 60.7 63.8 106.8 0 46-25.9 86.1-63.8 106.6z m0-155.2c-10.9-12.9-26-22-43.2-25.3-5.9-1.1-11.9-1.6-18.2-1.2-38.1 2-68.9 32.8-71 70.9-2.4 43.3 32.2 79.2 75.1 79.2 4.8 0 9.5-0.5 14.1-1.3 17.2-3.3 32.3-12.4 43.2-25.3 11.1-13.1 17.8-30 17.8-48.5s-6.7-35.4-17.8-48.5zM929.5 267.20000000000005c-9.1 4.8-13.7 15.5-10.6 25.4 1.7 5.5 2.6 11.3 2.6 17.2 0 15.4-6 29.8-16.8 40.6l-34.8 34.8C859 396 844.6 402 829.3 402c-5.9 0-11.7-0.9-17.2-2.6-9.9-3.1-20.6 1.5-25.4 10.6-4.3 8.2-10.5 15.2-18.1 20.4-9.3 6.5-20.6 10.3-32.8 10.3h-49.1c-22 0-41.2-12.5-50.8-30.7-4.8-9.1-15.5-13.7-25.4-10.6-5.5 1.7-11.3 2.6-17.2 2.6-15.3 0-29.7-5.9-40.6-16.8L518 350.4c-3-3-5.6-6.2-7.8-9.7-5.9-9.1-9-19.8-9-30.9 0-5.9 0.9-11.7 2.6-17.2 2.8-9.1-0.8-18.9-8.6-24.1-0.7-0.4-1.3-0.9-2-1.2-18.2-9.6-30.7-28.8-30.7-50.8v-49.1c0-22 12.5-41.2 30.7-50.8 4.1-2.2 7.3-5.6 9.3-9.6 2.4-4.8 3-10.4 1.3-15.8-1.7-5.5-2.6-11.3-2.6-17.2 0-15.4 6-29.8 16.8-40.7l34.7-34.7c10.8-10.8 25.3-16.8 40.6-16.8 5.9 0 11.7 0.9 17.2 2.6 7.5 2.3 15.4 0.3 20.9-4.8 1.8-1.6 3.3-3.6 4.5-5.8 9.6-18.2 28.8-30.7 50.8-30.7h49.1c22 0 41.2 12.5 50.8 30.7 4.8 9.1 15.5 13.7 25.4 10.6 5.5-1.7 11.3-2.6 17.2-2.6 15.3 0 29.8 6 40.6 16.8l34.7 34.7c10.8 10.8 16.8 25.3 16.8 40.6 0 5.9-0.9 11.7-2.6 17.2-3.1 9.9 1.5 20.6 10.6 25.4 18.2 9.6 30.7 28.8 30.7 50.8v49.1c0.2 22-12.3 41.1-30.5 50.8zM914.2 189c0-18.4-14.9-33.2-33.2-33.2-9.3 0-17.5-5.9-20.6-14.6l-0.3-0.8c-2-5.8-4.4-11.7-7.2-17.3l-0.4-0.8c-4-8.3-2.3-18.3 4.2-24.8l15.4-15.4c2.2-2.2 3.4-5 3.4-8.1 0-3.1-1.2-5.9-3.3-8.1L837.4 31c-2.2-2.2-5-3.3-8.1-3.3-3.1 0-5.9 1.2-8.1 3.3l-15.4 15.4c-6.6 6.5-16.5 8.2-24.9 4.2l-0.8-0.4c-3.7-1.8-7.6-3.5-11.5-5-1.9-0.7-3.9-1.5-5.8-2.1l-0.8-0.3c-8.8-3-14.7-11.3-14.7-20.6 0-17.7-13.8-32.1-31.2-33.1-0.7 0-1.3-0.1-2-0.1h-5.6c-18.3 0-33.2 14.9-33.2 33.2 0 9.3-5.9 17.5-14.7 20.6l-0.8 0.3c-5.9 2-11.7 4.4-17.3 7.1l-0.8 0.4c-8.3 4.1-18.3 2.4-24.9-4.2L601.5 31c-2.2-2.2-5-3.3-8.1-3.3-3.1 0-5.9 1.2-8.1 3.3l-34.7 34.7c-2.2 2.2-3.4 5-3.4 8.1 0 3.1 1.2 5.9 3.3 8.1l15.4 15.4c2.7 2.7 4.6 6 5.5 9.5 1.4 5 1 10.5-1.4 15.4l-0.4 0.8c-2.7 5.5-5.1 11.3-7.1 17.2l-0.3 0.8c-3 8.8-11.3 14.7-20.6 14.7-14.9 0-27.5 9.8-31.7 23.4-1 3.1-1.5 6.4-1.5 9.9v5.6c0 18.4 14.9 33.2 33.2 33.2 9.3 0 17.5 5.9 20.6 14.7l0.3 0.8c2.1 6 4.4 11.8 7.1 17.3l0.4 0.8c1.1 2.3 1.8 4.6 2 7 0.7 6.5-1.4 13.1-6.2 17.8l-15.4 15.4c-2.2 2.2-3.3 5-3.3 8.1 0 3.1 1.1 5.9 3.3 8.1l22.8 22.8 11.9 11.9c2.2 2.2 5 3.3 8.1 3.3 3.1 0 5.9-1.2 8.1-3.3l12.7-12.7 2.6-2.6c3.9-3.9 9.1-6.1 14.4-6.3 3.5-0.2 7.1 0.5 10.5 2.2l0.8 0.4c5.6 2.7 11.4 5.1 17.3 7.1l0.8 0.3c8.8 3 14.7 11.3 14.7 20.6 0 18.3 14.9 33.2 33.2 33.2h5.6c4 0 7.8-0.7 11.3-2 12.8-4.6 21.9-16.9 21.9-31.2 0-9.3 5.9-17.6 14.7-20.6l0.8-0.3c1.9-0.7 3.8-1.4 5.8-2.1 3.9-1.5 7.7-3.2 11.5-5l0.8-0.4c8.3-4 18.3-2.4 24.9 4.2l15.3 15.3c2.2 2.2 5 3.3 8.1 3.3 3.1 0 5.9-1.2 8.1-3.3l34.7-34.8c2.2-2.2 3.3-5 3.3-8.1 0-3.1-1.2-5.9-3.3-8.1l-15.4-15.4c-6.6-6.6-8.2-16.5-4.2-24.9l0.4-0.8c2.7-5.5 5.1-11.4 7.1-17.3l0.3-0.8c3-8.8 11.3-14.7 20.6-14.7 18.3 0 33.2-14.9 33.2-33.2v-5.5z"
                   horiz-adv-x="1024"/>


            <glyph glyph-name="order" unicode="&#58912;"
                   d="M299.18014 443.727657h358.991785M658.171925 417.135673H299.18014a26.591984 26.591984 0 0 0 0 53.183968h358.991785a26.591984 26.591984 0 0 0 0-53.183968zM299.18014 284.175753h465.359721M764.539861 257.58376899999996H299.18014a26.591984 26.591984 0 0 0 0 53.183968h465.359721a26.591984 26.591984 0 0 0 0-53.183968zM299.18014 124.62384799999995h332.399801M631.579941 98.03186400000004H299.18014a26.591984 26.591984 0 0 0 0 53.183969h332.399801a26.591984 26.591984 0 0 0 0-53.183969zM737.947877-128H285.884148A186.143888 186.143888 0 0 0 99.74026 58.14388799999995V563.3915850000001a186.143888 186.143888 0 0 0 186.143888 186.143889 26.591984 26.591984 0 0 0 0-53.183968A132.95992 132.95992 0 0 1 152.924228 563.3915850000001v-505.247697a132.95992 132.95992 0 0 1 132.95992-132.95992h452.063729a132.95992 132.95992 0 0 1 132.95992 132.95992V563.3915850000001a132.95992 132.95992 0 0 1-132.95992 132.959921 26.591984 26.591984 0 0 0 0 53.183968 186.143888 186.143888 0 0 0 186.143888-186.143889v-505.247697a186.143888 186.143888 0 0 0-186.143888-186.143888zM644.875933 603.2795610000001H378.956092a106.367936 106.367936 0 0 0 0 212.735873h29.915982a106.367936 106.367936 0 0 0 206.087877 0H644.875933a106.367936 106.367936 0 0 0 0-212.735873zM378.956092 762.831466a53.183968 53.183968 0 0 1 0-106.367937h265.919841a53.183968 53.183968 0 0 1 0 106.367937h-53.183968a26.591984 26.591984 0 0 0-26.591984 26.591984 53.183968 53.183968 0 0 1-106.367937 0 26.591984 26.591984 0 0 0-26.591984-26.591984z"
                   horiz-adv-x="1024"/>


            <glyph glyph-name="brand" unicode="&#58926;"
                   d="M871.443 732.51c-262.848 0-336.15 98.946-336.406 99.433l-44.9-0.37c-0.461-1.001-75.634-99.063-337.662-99.063H128.25V240.55999999999995c0-198.51 360.37-294.745 374.502-301.001l9.68-4.296 9.732 4.296c14.109 6.256 373.48 102.489 373.48 301.001V732.51h-24.2zM847.22 240.55999999999995c0-150.037-281.856-226.392-334.888-251.697-94.15 43.788-335.63 118.114-335.63 251.697V683.8779999999999c188.862 4.403 300.927 59.987 335.682 96.824 34.576-36.916 145.412-92.423 334.836-96.824V240.55999999999995zM476.694 630.9c8.34-13.854 15.474-26.494 21.212-37.821H289.634v-33.982h447.668V593.0799999999999h-196.71c-10.043 19.951-19.618 38.152-28.73 54.578L476.694 630.9z m146.486-95.747l-34.678 21.057a622.316 622.316 0 0 0-42.427-65.567H442.507l24.61 17.683c-11.87 15.345-25.126 31.923-39.696 49.816l-27.856-19.615c12.33-15.808 23.736-31.77 34.24-47.884H319.852V173.24h34.217V457.613H669.19V250.32000000000005c0-22.988-9.91-34.498-29.68-34.498-15.527 0-35.323 1.315-59.343 3.835 2.112-8.289 4.429-21.7 6.85-40.187 23.734-0.67 45.048-0.8 63.895-0.516 34.987 0.31 52.468 20.595 52.468 60.836V490.642H586.7c9.858 11.663 22.038 26.492 36.48 44.51z m-166.538-82.817c-31.051-30.663-63.303-57.618-96.75-80.913 5.179-5.768 12.333-15.162 21.447-28.216 30.995 24.223 64.31 52.31 99.939 84.234l-24.636 24.895z m202.608-71.339c-23.12 17.893-57.18 41.653-102.206 71.339l-20.107-26.314c36.197-24.612 69.354-49.656 99.503-75.196l22.81 30.171z m-54.762-6.201h-182.99v-154.16h32.851v25.356h150.143V374.79600000000005h-0.004z m-32.848-98.139H454.348v67.477H571.64v-67.477z"
                   horiz-adv-x="1025"/>


        </font>
</defs>
</svg>
